<svg width="149" height="148" viewBox="0 0 149 148" fill="none" xmlns="http://www.w3.org/2000/svg">
<path d="M74.8769 129.447C74.8769 129.447 13.2695 105.666 13.2695 52.4377C13.2695 43.4511 16.839 34.8329 23.1935 28.4784C29.548 22.1239 38.167 18.5537 47.1536 18.5537C52.5997 18.5519 57.9641 19.8674 62.7915 22.3884C67.619 24.9094 71.7662 28.5609 74.8769 33.0313C77.9912 28.5647 82.1371 24.9165 86.9637 22.3959C91.7903 19.8753 97.155 18.5571 102.6 18.5537C111.587 18.5537 120.204 22.1239 126.559 28.4784C132.913 34.8329 136.484 43.4511 136.484 52.4377C136.484 105.666 74.8769 129.447 74.8769 129.447Z" stroke="#44475C" stroke-width="11.908" stroke-linejoin="round"/>
</svg>
