<svg width="149" height="148" viewBox="0 0 149 148" fill="none" xmlns="http://www.w3.org/2000/svg">
<path d="M116.227 40.7308L81.7282 14.856C79.5954 13.2564 77.0017 12.3916 74.3357 12.3916C71.6697 12.3916 69.0744 13.2564 66.9416 14.856L32.4424 40.7308C30.147 42.4524 28.2838 44.6847 27.0006 47.251C25.7174 49.8174 25.0498 52.6475 25.0498 55.5167V123.285C25.0498 126.553 26.3474 129.686 28.6581 131.997C30.9688 134.308 34.1034 135.606 37.3713 135.606H111.3C114.568 135.606 117.701 134.308 120.012 131.997C122.322 129.686 123.622 126.553 123.622 123.285V55.5167C123.622 52.6475 122.952 49.8174 121.669 47.251C120.386 44.6847 118.523 42.4524 116.227 40.7308V40.7308Z" stroke="#44475C" stroke-width="12.2387" stroke-miterlimit="10"/>
<path d="M74.3359 80.1611V117.126" stroke="#44475C" stroke-width="12.2387" stroke-miterlimit="10"/>
</svg>
