<svg width="149" height="148" viewBox="0 0 149 148" fill="none" xmlns="http://www.w3.org/2000/svg">
<path d="M99.3064 37.0365C99.3064 30.5008 96.7097 24.2327 92.0883 19.6113C87.4668 14.9898 81.1992 12.3936 74.6634 12.3936C68.1277 12.3936 61.8601 14.9898 57.2386 19.6113C52.6172 24.2327 50.0205 30.5008 50.0205 37.0365V49.358C50.0205 55.8937 52.6172 62.1617 57.2386 66.7832C61.8601 71.4046 68.1277 74.0009 74.6634 74.0009C81.1992 74.0009 87.4668 71.4046 92.0883 66.7832C96.7097 62.1617 99.3064 55.8937 99.3064 49.358V37.0365Z" stroke="#44475C" stroke-width="11.908" stroke-miterlimit="10"/>
<path d="M19.2178 135.608C28.5821 110.225 50.0214 92.4824 74.6644 92.4824C99.3073 92.4824 120.747 110.225 130.111 135.608" stroke="#44475C" stroke-width="11.908" stroke-miterlimit="10"/>
</svg>
